<svg xmlns="http://www.w3.org/2000/svg" xmlns:xlink="http://www.w3.org/1999/xlink" version="1.1" x="0px" y="0px" viewBox="0 0 26 32.5" style="enable-background:new 0 0 26 26;" xml:space="preserve"><g><path d="M1.5,23.9h23c0.3,0,0.5-0.2,0.5-0.5c0-0.3-0.2-0.5-0.5-0.5h-1.6V11.4c0-0.3-0.2-0.5-0.5-0.5h-2.8c-0.3,0-0.5,0.2-0.5,0.5   v11.6h-1.6v-7.7c0-0.3-0.2-0.5-0.5-0.5h-2.8c-0.3,0-0.5,0.2-0.5,0.5v7.7h-1.6V11.2c0-0.3-0.2-0.5-0.5-0.5H8.9   c-0.3,0-0.5,0.2-0.5,0.5v11.8H6.8v-3.3c0-0.3-0.2-0.5-0.5-0.5H3.5c-0.3,0-0.5,0.2-0.5,0.5v3.3H1.5c-0.3,0-0.5,0.2-0.5,0.5   C1,23.7,1.2,23.9,1.5,23.9z"/><path d="M2.3,14.4L11.1,8l2.5,3c0.2,0.2,0.5,0.2,0.7,0.1l9.3-7.4v2.2c0,0.3,0.2,0.5,0.5,0.5c0.3,0,0.5-0.2,0.5-0.5V2.6   c0-0.3-0.2-0.5-0.5-0.5h0l-3.3,0c-0.3,0-0.5,0.2-0.5,0.5c0,0.3,0.2,0.5,0.5,0.5c0,0,0,0,0,0l2.1,0l-8.8,7l-2.5-3   c-0.2-0.2-0.4-0.2-0.6-0.1l-9.2,6.7c-0.2,0.2-0.3,0.5-0.1,0.7C1.8,14.5,2.1,14.6,2.3,14.4z"/></g><text x="0" y="41" fill="#000000" font-size="5px" font-weight="bold" font-family="'Helvetica Neue', Helvetica, Arial-Unicode, Arial, Sans-serif">Created by Vectors Point</text><text x="0" y="46" fill="#000000" font-size="5px" font-weight="bold" font-family="'Helvetica Neue', Helvetica, Arial-Unicode, Arial, Sans-serif">from the Noun Project</text></svg>